<svg id="step3" data-name="step3" xmlns="http://www.w3.org/2000/svg" width="900" height="900" viewBox="0 0 900 900"><defs><style>.cls-1{fill:#ebeff3;}.cls-2{fill:#34323f;}.cls-3{fill:#1f1d26;}.cls-4{fill:#c3bfb6;}.cls-5{fill:#edece8;}.cls-6{fill:#fff;}.cls-7{fill:#978f88;}.cls-8{fill:#f9f7f6;}.cls-9{fill:#59504e;}.cls-10{fill:#be845b;}.cls-11{fill:#f8c98d;}.cls-12{fill:#f46b36;}.cls-13{fill:#090708;opacity:0.2;}.cls-14{fill:#e5e3de;}.cls-15{fill:#45a7a4;}.cls-16{fill:#dc4f1e;}.cls-17{fill:#feeeda;}.cls-18{fill:#161317;}.cls-19{fill:#474559;}</style></defs><title>Plan de travail 1</title><circle class="cls-1" cx="450" cy="450" r="450"/><ellipse class="cls-2" cx="400.35" cy="587.47" rx="313.82" ry="96.18" transform="translate(-123.57 106.94) rotate(-13.2)"/><ellipse class="cls-3" cx="433.71" cy="588.56" rx="277.15" ry="84.94" transform="translate(-30.17 23.47) rotate(-3)"/><path class="cls-4" d="M362,659.52c5.31,3,15.47,4.37,22.5,3.1l372.14-67.14c5.1-.86,2.73-13.84,2.73-13.84L585.91,523.76a38.94,38.94,0,0,0-15.73-2.24L197.1,552.68s-4.08,12,.1,14.74Z"/><path class="cls-5" d="M363.56,647.64c5.31,3,15.48,4.37,22.5,3.1l370.73-66.8c4.28-.77,3.45-3.12-1.8-5.22L587.46,511.88a38.94,38.94,0,0,0-15.73-2.24L203.67,550c-6.78.74-9,3.22-4.92,5.52Z"/><path class="cls-6" d="M309.17,606c4.84,2.71,14.12,4,20.53,2.83L668.61,554.4c3.91-.7,3.15-2.85-1.64-4.76l-81.32-33.31a35.53,35.53,0,0,0-14.35-2L231.23,553.87c-6.19.68-8.23,2.94-4.49,5Z"/><path class="cls-4" d="M188,537.79c.87,9.65,8.47,10.35,13.62,9.78l364.86-41c3.9-.43,6.9-4.8,6.67-9.71L561.7,251c-.23-4.94-3.62-7.32-7.56-7.31l-365.82.48-.79-.26c-5.2,0-14.07,2-13.91,10Z"/><path class="cls-7" d="M193,538.24c.29,5.67,4.75,9.84,9.91,9.28L571.45,507c3.9-.43,6.9-4.8,6.67-9.71L566.67,251.4c-.23-4.94-3.63-9-7.56-9l-371.58,1.42c-5.2,0-9.23,4.7-8.94,10.41Z"/><polygon class="cls-8" points="207.9 527.99 566.13 491.03 555.43 261.88 194.68 266.04 207.9 527.99"/><path class="cls-9" d="M618.14,596.72h0a12.08,12.08,0,0,0-3.14-1.59l-40.54-17.54c-6.36-2.75-10.79-3.38-17.15-2.43l-89.86,13.48c-7.05,1.06-7.45,2.48-1.4,5.37q14.15,6.77,28.74,13.71h0c4.77,2.31,9.47,4.64,14.43,7a27.63,27.63,0,0,0,13.49,2.07c.82-.08,1.57-.22,2.3-.35l91.19-16C620.46,599.64,620.93,598.62,618.14,596.72Z"/><path class="cls-9" d="M530.47,571.4l44.35-6.53c3.12-.46,3.11-.56.11-1.86q-3.72-1.61-7.46-3.21c-2.71-1.15-3.15-1.22-6-.82L508,566.54l-39,5.51c-3.6.51-3.62.61-.67,2,2.46,1.18,4.94,2.35,7.46,3.53,2.74,1.28,3.26,1.35,6.5.88Z"/><path class="cls-9" d="M323.81,571.13c-7.22.93-14.45,1.89-21.87,2.8-2.7.33-3,.85-1.11,1.8,2.79,1.41,5.42,2.85,8.07,4.3a8.19,8.19,0,0,0,5.34.76q22.59-3.05,44.39-6c2.06-.28,2.3-.77.77-1.54-2.74-1.38-5.49-2.75-8.1-4.13a9.19,9.19,0,0,0-6-.82C338.28,569.3,331.06,570.2,323.81,571.13Z"/><path class="cls-9" d="M289.41,555.21l-18.72,2.2c-3.58.42-3.71.61-1.35,1.9s4.86,2.58,7.25,3.89a8.68,8.68,0,0,0,5.31.75l38.64-4.71c2.11-.26,2.17-.76.74-1.48-2.55-1.28-5.11-2.56-7.51-3.85a9.34,9.34,0,0,0-6.09-.86C301.72,553.81,295.56,554.49,289.41,555.21Z"/><path class="cls-9" d="M603,535.12c-3.5.45-7,.92-10.59,1.35-1.73.21-1.9.56-.07,1.29,2.8,1.11,5.52,2.24,8.2,3.38a8.41,8.41,0,0,0,4.65.7q10.88-1.48,21.57-2.89c1.46-.19,1.44-.58,0-1.19l-8.6-3.47a8.14,8.14,0,0,0-4.32-.57C610.23,534.2,606.6,534.65,603,535.12Z"/><path class="cls-9" d="M358.06,576.95c-4.81.65-9.62,1.31-14.53,1.95-2.14.28-2.5.74-.9,1.55,3,1.5,5.83,3,8.72,4.54a8.22,8.22,0,0,0,5.1.72l29.38-4.13c1.86-.26,2.11-.78.68-1.5l-8.73-4.41a8.4,8.4,0,0,0-5.2-.69C367.81,575.65,362.94,576.29,358.06,576.95Z"/><path class="cls-9" d="M311.39,570.47c4.52-.58,9-1.17,13.49-1.72,2.3-.28,2.57-.77,1-1.58-2.75-1.4-5.44-2.79-8.1-4.18a8.58,8.58,0,0,0-5.2-.72l-27.71,3.41c-2,.25-2.36.7-1,1.43,2.78,1.46,5.54,2.93,8.24,4.42a8.11,8.11,0,0,0,5.26.74C302,571.65,306.74,571.07,311.39,570.47Z"/><path class="cls-9" d="M602,533.37c2.78-.36,5.5-.73,8.32-1.05,1.84-.21,1.68-.64-.12-1.34-2.65-1-5.25-2.09-7.81-3.14a8.62,8.62,0,0,0-4.52-.66q-8.57,1.07-17.35,2.13c-1.45.18-1.71.5-.13,1.14q4.27,1.72,8.45,3.47a7.9,7.9,0,0,0,4.34.59C596.07,534.11,599,533.75,602,533.37Z"/><path class="cls-9" d="M654,553.25c2.21-.33,4.39-.66,6.62-1,1.48-.2,1.46-.58-.2-1.24-3-1.17-5.89-2.35-8.75-3.52a8.26,8.26,0,0,0-4.61-.67c-4.29.63-8.67,1.24-13.09,1.86-1.49.21-1.5.6.1,1.25,2.93,1.19,5.87,2.38,8.76,3.59a8.27,8.27,0,0,0,4.71.67C649.68,553.86,651.88,553.56,654,553.25Z"/><path class="cls-9" d="M408.76,589.26c3-.44,5.88-.89,8.86-1.3,2-.28,2.31-.79.73-1.58q-4.48-2.24-9-4.46a8.7,8.7,0,0,0-5.27-.7q-8.92,1.29-18.07,2.55c-2.06.28-2.42.75-.77,1.56q4.54,2.26,9,4.56a8.14,8.14,0,0,0,5.3.72C402.57,590.15,405.69,589.71,408.76,589.26Z"/><path class="cls-9" d="M412,559.76c-2.24.29-4.48.59-6.76.87-1.71.21-1.89.64-.6,1.27q4.36,2.13,8.81,4.27a8.74,8.74,0,0,0,5.11.66q6.6-.91,13.2-1.77c2-.26,2.2-.75.6-1.52l-8.18-3.89a9.12,9.12,0,0,0-5.51-.76C416.5,559.21,414.21,559.47,412,559.76Z"/><path class="cls-9" d="M482.52,532.55c-2,.23-3.92.48-5.94.69-1.6.17-1.88.52-.5,1.13l8.48,3.76a8.22,8.22,0,0,0,4.41.6l12-1.47c1.44-.17,1.6-.55.35-1.09-2.87-1.27-5.79-2.53-8.7-3.79a7.88,7.88,0,0,0-4.29-.52C486.49,532.11,484.49,532.32,482.52,532.55Z"/><path class="cls-9" d="M351.08,548c-2.22.26-4.41.54-6.7.78-2.14.22-2.67.64-1,1.42q4.3,2.06,8.61,4.14a7.56,7.56,0,0,0,4.23.58q7.3-.87,14.46-1.76c1.61-.2,2-.62.69-1.25l-8.39-4.1a8,8,0,0,0-4.66-.64c-2.35.3-4.77.56-7.17.85Z"/><path class="cls-9" d="M368.28,563.21c2.35-.3,4.68-.62,7.05-.9,1.91-.23,2.09-.68.7-1.36l-8.61-4.24a8,8,0,0,0-4.53-.62l-14.4,1.77c-1.67.21-2.22.58-.9,1.26,2.65,1.37,5.29,2.75,7.94,4.13a9.63,9.63,0,0,0,6.24.81C363.84,563.73,366.11,563.49,368.28,563.21Z"/><path class="cls-9" d="M523.76,554.56c-2,.27-4,.55-6,.8-1.53.19-1.56.56-.34,1.18,2.87,1.44,6.26,2.82,9.6,4.21a7,7,0,0,0,3.52.52q6.54-.88,12.89-1.8c1.47-.21,1.06-.71-.22-1.27l-8.84-3.87a7.9,7.9,0,0,0-4.44-.6C527.91,554,525.82,554.29,523.76,554.56Z"/><path class="cls-9" d="M366.59,586.55c-2.48.35-4.95.71-7.47,1.05-2.05.28-2.2.77-.7,1.54,3.08,1.58,6.12,3.17,9.16,4.78a7.55,7.55,0,0,0,4.81.69l15.47-2.28c1.86-.27,2-.75.56-1.46-3.09-1.57-6.16-3.13-9.17-4.69a7.79,7.79,0,0,0-5-.71C371.75,585.84,369.16,586.19,366.59,586.55Z"/><path class="cls-9" d="M353.55,597.36l7.95-1.17c1.9-.27,2.09-.77.7-1.49-3.07-1.6-6.13-3.2-9.14-4.79a8,8,0,0,0-5.08-.73q-7.73,1.11-15.63,2.21c-2.09.29-2.33.79-.84,1.57,3,1.57,6,3.16,8.88,4.76a8.09,8.09,0,0,0,5.46.78C348.39,598.1,351,597.74,353.55,597.36Z"/><path class="cls-9" d="M614.33,559.07l5.68-.83c1.35-.19,1.34-.57-.08-1.15l-9.44-3.93a7.4,7.4,0,0,0-4-.55l-11.19,1.58c-1.45.2-1.52.59,0,1.22q4.63,1.94,9.23,3.9a7.6,7.6,0,0,0,4.34.58C610.64,559.6,612.5,559.34,614.33,559.07Z"/><path class="cls-9" d="M364.89,565.83c-2.38.3-4.74.62-7.16.92-1.9.23-2.32.64-.84,1.38,3,1.5,6,3,9,4.54a7.27,7.27,0,0,0,4.33.61l14.83-2c1.87-.25,1.94-.74.52-1.44q-4.44-2.18-8.78-4.35a7.58,7.58,0,0,0-4.52-.61C369.82,565.21,367.35,565.52,364.89,565.83Z"/><path class="cls-9" d="M446.49,575.24l-6.76,1c-1.79.25-2,.71-.51,1.43l9.22,4.46a7.6,7.6,0,0,0,4.58.67l14-2.06c1.64-.24,1.8-.67.38-1.35l-9.46-4.49a7.55,7.55,0,0,0-4.49-.6C451.15,574.6,448.81,574.92,446.49,575.24Z"/><path class="cls-9" d="M343.91,566.32c2.42-.31,4.82-.62,7.24-.92,1.79-.22,2.08-.64.77-1.3l-8.54-4.31a8.12,8.12,0,0,0-4.82-.7l-15.08,1.85c-1.66.21-1.95.61-.75,1.22l8.94,4.6a7.31,7.31,0,0,0,4.35.56Z"/><path class="cls-9" d="M521.84,527.94l-5.65.66c-1.37.15-1.7.45-.36,1l8.73,3.73a7.74,7.74,0,0,0,4,.55l11.47-1.4c1.47-.18,1.45-.55,0-1.14-2.82-1.17-5.59-2.33-8.3-3.5a7.86,7.86,0,0,0-4.37-.58C525.61,527.52,523.71,527.72,521.84,527.94Z"/><path class="cls-9" d="M579.27,536.27c1.8-.23,3.57-.47,5.39-.69,1.42-.17,1.65-.49.17-1.09l-8.68-3.57a8,8,0,0,0-4.15-.56l-10.81,1.33c-1.56.19-1.53.56,0,1.19,2.79,1.14,5.55,2.29,8.26,3.45a8.13,8.13,0,0,0,4.64.62C575.76,536.7,577.54,536.49,579.27,536.27Z"/><path class="cls-9" d="M453.52,543c2-.24,4-.5,6-.72,1.83-.21,2.2-.6.54-1.33-2.75-1.21-5.44-2.43-8.07-3.64a8,8,0,0,0-4.61-.67c-4.09.5-8.26,1-12.46,1.46-1.63.19-2.06.52-.61,1.17q4.27,1.93,8.47,3.89a8,8,0,0,0,4.5.61l6.26-.76Z"/><path class="cls-9" d="M277.3,574.82c2.62-.33,5.21-.68,7.84-1,2.08-.25,2.47-.71,1-1.46-2.88-1.52-5.69-3-8.48-4.55a7.75,7.75,0,0,0-4.73-.66l-16,2c-2.05.25-2.52.72-1.14,1.48,2.82,1.53,5.61,3.08,8.42,4.63a7.71,7.71,0,0,0,4.83.65C271.81,575.51,274.57,575.17,277.3,574.82Z"/><path class="cls-9" d="M397.13,542.57c-2.1.25-4.18.51-6.33.74-1.89.2-2.27.58-.75,1.29q4.15,1.94,8.22,3.92a8.45,8.45,0,0,0,4.89.67c4.31-.53,8.59-1.06,12.87-1.57,1.92-.23,2.29-.63.62-1.39q-4.14-1.87-8-3.76a8.26,8.26,0,0,0-5-.67C401.54,542.08,399.32,542.32,397.13,542.57Z"/><path class="cls-9" d="M559.42,523.53c-1.78.21-3.55.43-5.37.63-1.42.15-1.67.46-.22,1q4.28,1.75,8.5,3.52a7.85,7.85,0,0,0,4.14.56l10.69-1.3c1.36-.17,1.53-.5.11-1.08l-8.5-3.47a7.62,7.62,0,0,0-4-.53C563,523.12,561.2,523.32,559.42,523.53Z"/><path class="cls-9" d="M577.52,538.41l-5.66.73c-1.26.16-1.28.5-.06,1l9,3.79a7.83,7.83,0,0,0,4,.59L596.17,543c1.32-.18,1.27-.55-.07-1.1-3-1.22-5.92-2.43-8.82-3.65a7.67,7.67,0,0,0-4.15-.59C581.29,537.93,579.4,538.17,577.52,538.41Z"/><path class="cls-9" d="M481,548.82c2-.25,3.89-.52,5.89-.75,1.75-.2,2-.59.49-1.28L478.87,543a8.11,8.11,0,0,0-4.44-.65l-12.56,1.54c-1.7.2-1.67.61-.27,1.23,2.84,1.27,5.67,2.55,8.46,3.85a8,8,0,0,0,4.73.63C476.81,549.33,478.91,549.08,481,548.82Z"/><path class="cls-9" d="M459.6,551.55c2.11-.27,4.18-.55,6.31-.8,1.69-.2,1.86-.59.4-1.24-2.86-1.29-5.69-2.57-8.46-3.85a8.38,8.38,0,0,0-4.75-.66l-12.64,1.55c-1.67.2-1.87.6-.44,1.25,2.91,1.33,5.79,2.67,8.68,4a7.52,7.52,0,0,0,4.29.59Z"/><path class="cls-9" d="M415.25,557.2l6.66-.85c1.66-.21,1.81-.6.47-1.23l-8.86-4.19a7.38,7.38,0,0,0-4.09-.57l-13.89,1.7c-1.64.2-1.85.62-.55,1.24l8.85,4.26a7.31,7.31,0,0,0,4.17.56Z"/><path class="cls-9" d="M392,560.18c2.29-.29,4.55-.59,6.85-.87,1.66-.2,2.09-.57.72-1.23l-9.05-4.37a7,7,0,0,0-3.87-.54L372.07,555c-1.56.19-1.77.61-.6,1.19q4.35,2.16,8.8,4.34a7.74,7.74,0,0,0,4.52.61C387.17,560.78,389.58,560.48,392,560.18Z"/><path class="cls-9" d="M577.27,521.43c-1.74.21-3.46.42-5.24.61-1.36.15-1.3.47,0,1q4.26,1.72,8.5,3.47a7.91,7.91,0,0,0,4.09.57L595,525.81c1.47-.18,1.41-.55-.06-1.14q-4.08-1.63-8.07-3.25a8.29,8.29,0,0,0-4.45-.6C580.79,521,579,521.23,577.27,521.43Z"/><path class="cls-9" d="M532.73,551.53c1.88-.25,3.73-.51,5.63-.75,1.73-.21,2-.61.32-1.35-2.86-1.22-5.66-2.44-8.45-3.66a8.19,8.19,0,0,0-4.59-.68c-3.86.52-7.78,1-11.75,1.52-1.55.19-1.85.54-.36,1.19q4.46,1.94,8.88,3.91a7.78,7.78,0,0,0,4.42.62C528.78,552,530.77,551.79,532.73,551.53Z"/><path class="cls-9" d="M499.31,548.49c-1.93.25-3.84.51-5.83.74-1.73.2-2.07.57-.45,1.28q4.38,1.92,8.66,3.88a8.19,8.19,0,0,0,4.75.65q5.93-.81,11.84-1.59c1.66-.22,1.91-.62.32-1.31-2.92-1.28-5.82-2.55-8.65-3.82a8,8,0,0,0-4.64-.61C503.36,548,501.32,548.23,499.31,548.49Z"/><path class="cls-9" d="M478.45,551.18c-2.06.26-4.11.54-6.22.8-1.65.2-2,.57-.47,1.24q4.44,2,8.84,4a7.94,7.94,0,0,0,4.56.64l12.61-1.69c1.45-.2,1.69-.58.33-1.2l-9-4.07a7.5,7.5,0,0,0-4.2-.57Z"/><path class="cls-9" d="M516.42,563.28l6.1-.86c1.64-.24,1.84-.67.21-1.39q-4.39-1.92-8.63-3.85a8.09,8.09,0,0,0-4.73-.69c-4.11.58-8.29,1.14-12.51,1.69-1.57.21-1.66.58-.27,1.2,3,1.36,6.07,2.73,9.06,4.11a8,8,0,0,0,4.59.65Z"/><path class="cls-9" d="M386.85,551.17c2.25-.27,4.47-.56,6.73-.82,1.94-.22,2.07-.65.56-1.35-2.8-1.31-5.52-2.62-8.21-3.93a7.73,7.73,0,0,0-4.53-.65q-6.79.82-13.75,1.61c-1.86.21-2,.63-.69,1.27,2.71,1.33,5.45,2.65,8.17,4a8.39,8.39,0,0,0,5,.7C382.31,551.71,384.59,551.44,386.85,551.17Z"/><path class="cls-9" d="M541.42,541.1l5.88-.75c1.29-.16,1.35-.5.11-1-3-1.26-6-2.52-8.89-3.78a7.57,7.57,0,0,0-4-.57l-11.61,1.42c-1.5.18-1.61.56-.19,1.16,2.91,1.24,5.79,2.49,8.69,3.74a7.44,7.44,0,0,0,4.06.56Z"/><path class="cls-9" d="M594.67,562l5.85-.86c1.28-.19,1.28-.57,0-1.11L591,556a7.78,7.78,0,0,0-4.15-.58L575.14,557c-1.31.19-1.3.56,0,1.11l9.48,4.08a7.42,7.42,0,0,0,4.17.59l5.9-.87Z"/><path class="cls-9" d="M521.72,543.62c1.94-.25,3.85-.51,5.82-.74,1.56-.19,1.68-.54.21-1.17-2.87-1.22-5.71-2.44-8.47-3.66a8,8,0,0,0-4.5-.66q-5.64.72-11.43,1.4c-1.76.21-2,.59-.36,1.3,2.79,1.2,5.52,2.41,8.27,3.62a8.11,8.11,0,0,0,4.61.65C517.78,544.1,519.77,543.87,521.72,543.62Z"/><path class="cls-9" d="M326.23,601.37l8.19-1.21c1.77-.26,2.07-.74.78-1.43l-9.54-5.12a7.4,7.4,0,0,0-4.6-.61l-16.42,2.32c-2.17.31-2.21.88-.8,1.65q4.42,2.41,8.83,4.86a8.46,8.46,0,0,0,5.63.73c2.62-.41,5.3-.79,7.95-1.18Z"/><path class="cls-9" d="M502.37,530.22c-1.84.22-3.66.45-5.56.65-1.66.17-2,.52-.48,1.17l8.29,3.61a8.45,8.45,0,0,0,4.58.62c3.77-.47,7.53-.93,11.3-1.38,1.75-.21,1.73-.61.12-1.28-2.7-1.12-5.35-2.25-7.88-3.38a8.37,8.37,0,0,0-4.88-.66C506.11,529.81,504.21,530,502.37,530.22Z"/><path class="cls-9" d="M540.78,525.72c-1.75.21-3.48.43-5.28.61-1.59.17-1.8.5-.26,1.13,2.8,1.15,5.55,2.32,8.3,3.49a8,8,0,0,0,4.21.61l11.16-1.36c1.45-.18,1.29-.57-.09-1.13q-4.2-1.72-8.29-3.44a7.66,7.66,0,0,0-4.09-.58C544.58,525.28,542.67,525.49,540.78,525.72Z"/><path class="cls-9" d="M456.79,554c-2.13.28-4.25.56-6.41.82-1.62.2-1.76.59-.43,1.21l8.86,4.12a8.16,8.16,0,0,0,4.67.66l12.76-1.71c1.76-.24,1.9-.68.31-1.39q-4.41-2-8.65-4a7.73,7.73,0,0,0-4.52-.62C461.22,553.42,459,553.69,456.79,554Z"/><path class="cls-9" d="M437.68,554.34l6.73-.86c1.48-.19,1.6-.57.39-1.13l-8.88-4.11a7.86,7.86,0,0,0-4.32-.59l-13.25,1.62c-1.73.21-1.88.63-.47,1.29,2.83,1.32,5.65,2.64,8.42,4a8,8,0,0,0,4.86.65c2.14-.3,4.35-.56,6.52-.84Z"/><path class="cls-9" d="M558.8,540.82c-1.86.24-3.71.49-5.61.72-1.49.18-1.72.53-.26,1.15l8.87,3.78a8.15,8.15,0,0,0,4.36.59l11.15-1.5c1.42-.19,1.62-.54.12-1.17q-4.48-1.86-8.86-3.72a7.64,7.64,0,0,0-4.21-.57C562.53,540.35,560.66,540.58,558.8,540.82Z"/><path class="cls-9" d="M560.6,538.65c1.85-.23,3.67-.48,5.52-.7,1.45-.18,1.63-.52.15-1.12-2.93-1.21-5.82-2.42-8.7-3.62a7.76,7.76,0,0,0-4-.57L542.09,534c-1.39.17-1.24.56,0,1.1l8.68,3.68a7.42,7.42,0,0,0,4,.56Z"/><path class="cls-9" d="M633.86,556.21c1.71-.25,3.39-.51,5.12-.75,1.49-.2,1.67-.58,0-1.26l-9-3.69a8,8,0,0,0-4.26-.63l-10.93,1.54c-1.31.18-1.47.52,0,1.11l9.46,3.93a7.34,7.34,0,0,0,4,.56l5.58-.82Z"/><path class="cls-9" d="M249.77,559.87c-2.61.3-5.2.63-7.86.91-2.12.23-2.63.67-1.3,1.4l8.21,4.52a8.43,8.43,0,0,0,5.13.66l15.68-1.91c2.25-.27,2.39-.77.94-1.53q-4-2.11-7.86-4.22a8,8,0,0,0-5.16-.74C255,559.28,252.38,559.56,249.77,559.87Z"/><path class="cls-9" d="M339.36,557c2.29-.28,4.55-.57,6.86-.83,2.12-.24,2.6-.68,1-1.48-2.71-1.33-5.36-2.66-8-4a8.18,8.18,0,0,0-5-.72q-7,.86-14.29,1.68c-2.14.24-2.26.68-.8,1.41,2.69,1.34,5.35,2.68,7.94,4a8.59,8.59,0,0,0,5.36.72C334.73,557.5,337.06,557.23,339.36,557Z"/><path class="cls-9" d="M448.11,562.85l6.27-.84c1.68-.22,2-.63.49-1.32q-4.49-2.07-8.86-4.13a7.88,7.88,0,0,0-4.6-.6c-4.32.57-8.68,1.14-13.11,1.68-2,.24-2,.7-.45,1.4q4.23,2,8.41,4a8.82,8.82,0,0,0,5.28.7c2.17-.31,4.39-.59,6.58-.89Z"/><path class="cls-9" d="M563.44,549.21c-1.81.24-3.59.5-5.46.73-1.63.2-1.89.56-.25,1.25,3,1.25,5.9,2.52,8.83,3.8a8.22,8.22,0,0,0,4.44.64c3.89-.53,7.73-1.07,11.54-1.61,1.49-.21,1.34-.63-.15-1.25q-4.49-1.87-8.83-3.74a7.65,7.65,0,0,0-4.28-.62C567.37,548.69,565.4,548.94,563.44,549.21Z"/><path class="cls-9" d="M422.33,578.66c-2.23.31-4.44.64-6.71.94-2,.27-2.25.76-.63,1.54,3,1.47,6,3,9,4.46a8.17,8.17,0,0,0,5,.69l14.19-2.09c1.72-.25,1.82-.7.4-1.38-3.12-1.5-6.21-3-9.24-4.49a7.79,7.79,0,0,0-4.82-.68C427.15,578,424.73,578.32,422.33,578.66Z"/><path class="cls-9" d="M389,562.72c-2.31.3-4.61.61-7,.89-1.83.22-2.29.62-.8,1.35q4.42,2.16,8.79,4.36a8.08,8.08,0,0,0,4.86.66l13.88-1.86c2-.26,2-.76.51-1.49-2.83-1.36-5.64-2.72-8.39-4.07a8.54,8.54,0,0,0-5.28-.7C393.47,562.18,391.21,562.44,389,562.72Z"/><path class="cls-9" d="M419.29,540c-2.05.24-4.08.49-6.18.72-1.7.18-2.13.53-.69,1.19q4.26,2,8.46,4a8.13,8.13,0,0,0,4.58.62l12.81-1.56c1.62-.2,2-.57.54-1.23-2.86-1.3-5.69-2.6-8.47-3.9a7.76,7.76,0,0,0-4.44-.58C423.74,539.46,421.51,539.71,419.29,540Z"/><path class="cls-9" d="M462,535l-6.1.71c-1.54.17-1.66.53-.37,1.1l8.71,3.91a7.41,7.41,0,0,0,3.94.55q6.39-.76,12.64-1.54c1.45-.18,1.58-.56.3-1.13-2.91-1.29-5.8-2.58-8.72-3.85a7.38,7.38,0,0,0-3.86-.53Z"/><path class="cls-9" d="M293.65,583.53c2.52-.34,5-.68,7.54-1,2.18-.28,2.65-.77,1.07-1.6-2.89-1.52-5.69-3-8.46-4.55a7.86,7.86,0,0,0-5-.72q-7.94,1-16.05,2.07c-2.19.28-2.3.81-1,1.54l8.42,4.63a8.83,8.83,0,0,0,5.57.71C288.35,584.23,291,583.89,293.65,583.53Z"/><path class="cls-9" d="M501.77,546.16c1.91-.24,3.79-.5,5.73-.73,1.58-.19,1.83-.56.44-1.19q-4.42-2-8.87-3.9a7.47,7.47,0,0,0-3.89-.53l-12.68,1.56c-1.28.16-1.32.5-.22,1l9.08,4.06a7.39,7.39,0,0,0,4.16.53C497.59,546.68,499.69,546.43,501.77,546.16Z"/><path class="cls-9" d="M552.71,548.85l5.47-.73c1.48-.2,1.57-.58.1-1.2l-8.88-3.78a7.5,7.5,0,0,0-4-.58l-11.89,1.53c-1.49.19-1.3.6,0,1.15l8.65,3.74a8.79,8.79,0,0,0,4.92.65c1.87-.28,3.82-.52,5.73-.77Z"/><path class="cls-9" d="M618.33,549.13c1.83-.26,3.68-.51,5.48-.77,1.31-.19,1.28-.58-.07-1.15l-9.26-3.86a7.11,7.11,0,0,0-3.76-.51l-11.47,1.54c-1.37.18-1.49.53-.1,1.11,3,1.27,6,2.54,9,3.83a8.18,8.18,0,0,0,4.38.61C614.52,549.68,616.42,549.4,618.33,549.13Z"/><path class="cls-9" d="M557.31,557.56l5.55-.78c1.57-.22,1.83-.6.15-1.31-3-1.27-5.93-2.53-8.83-3.8a7.56,7.56,0,0,0-4.31-.64q-5.83.82-11.84,1.6c-1.6.21-1.59.61-.16,1.24l8.83,3.86a8.65,8.65,0,0,0,4.78.65l5.83-.82Z"/><path class="cls-9" d="M481.93,560.21c-2.1.28-4.19.58-6.33.85-1.7.22-1.93.61-.41,1.3,3,1.38,6,2.78,9.06,4.18a7.84,7.84,0,0,0,4.42.63l12.85-1.81c1.76-.25,1.65-.74.08-1.44Q497.2,562,493,560a8,8,0,0,0-4.79-.65C486.15,559.66,484,559.93,481.93,560.21Z"/><path class="cls-9" d="M460.08,563.16c-2.16.29-4.31.59-6.51.87-1.72.22-2.08.61-.55,1.32,3,1.41,6,2.83,9,4.26a7.92,7.92,0,0,0,4.49.64q6.83-.93,13.49-1.88c1.59-.23,1.45-.7.11-1.31q-4.57-2.1-9-4.19a7.4,7.4,0,0,0-4.33-.61c-2.21.31-4.46.6-6.7.91Z"/><path class="cls-9" d="M309.23,592.32l7.87-1.11c2.09-.3,2.7-.8,1.06-1.66q-4.43-2.33-8.66-4.65a7.89,7.89,0,0,0-5.09-.71q-8,1.09-16.09,2.17c-2.17.29-2.39.79-1,1.56,2.9,1.57,5.77,3.15,8.63,4.74a8.38,8.38,0,0,0,5.28.76c2.68-.36,5.31-.74,8-1.11Z"/><path class="cls-9" d="M390.71,572.53c-2.36.32-4.7.65-7.1,1-1.73.22-2.26.6-.84,1.31q4.6,2.29,9.2,4.62a7.81,7.81,0,0,0,4.68.65q7.27-1,14.41-2c1.8-.26,2-.76.56-1.47-3-1.49-6-3-9-4.43a7.84,7.84,0,0,0-4.6-.59C395.61,571.88,393.16,572.2,390.71,572.53Z"/><path class="cls-9" d="M414.36,569.34c-2.2.3-4.37.61-6.62.89-2,.24-2.42.68-.84,1.45l8.79,4.31a8.56,8.56,0,0,0,5,.71q7.07-1,14-2c1.62-.23,1.92-.65.51-1.33q-4.67-2.23-9.25-4.45a7.4,7.4,0,0,0-4.46-.58C419.12,568.71,416.73,569,414.36,569.34Z"/><path class="cls-9" d="M323.57,581.6c-2.45.33-4.87.68-7.37,1-2.17.27-2.77.72-1.14,1.57,2.93,1.53,5.79,3.08,8.66,4.64a7.76,7.76,0,0,0,4.85.74c5.48-.74,10.92-1.48,16.27-2.25,1.68-.24,1.77-.76.55-1.4l-9.13-4.78a7.34,7.34,0,0,0-4.46-.61l-8.2,1.11Z"/><path class="cls-9" d="M437.54,566.21c-2.23.3-4.43.61-6.7.9-1.81.23-2,.65-.55,1.36,2.95,1.4,5.89,2.81,8.8,4.23a8.56,8.56,0,0,0,5.11.7l13.47-2c1.46-.21,1.71-.6.39-1.22-3.11-1.46-6.21-2.92-9.25-4.37a7.3,7.3,0,0,0-4.38-.58C442.16,565.6,439.84,565.9,437.54,566.21Z"/><path class="cls-9" d="M363.93,544.84c2.17-.25,4.32-.51,6.5-.75,1.71-.19,1.89-.57.62-1.17q-2.25-1.06-4.42-2.13a7.45,7.45,0,0,0-4.27-.62l-13,1.47c-1.73.19-1.93.57-.67,1.18,1.49.72,3,1.44,4.4,2.16a7.72,7.72,0,0,0,4.61.6c2.06-.26,4.18-.49,6.27-.74Z"/><path class="cls-9" d="M246.51,558.51c2.38-.28,4.74-.57,7.14-.83,2.13-.23,2.34-.67,1-1.38-7.2-3.82-4.64-3.34-14.83-2.25-2.82.3-5.56.66-8.43.95-2.49.25-2.74.73-1.24,1.53,7,3.74,4.46,3.3,14.8,2.16l1.56-.18Z"/><path class="cls-9" d="M514.76,522.87c-1.72.19-3.42.4-5.17.58-1.41.15-1.58.46-.27,1,1.58.66,3.14,1.33,4.7,2a7,7,0,0,0,3.68.5l10.73-1.25c1.27-.15,1.3-.43.25-.95-5.64-2.75-5.9-2.8-12.81-2l-1.12.13Z"/><path class="cls-9" d="M558.28,522.23c1.63-.19,3.22-.39,4.88-.56,1.43-.15,1.51-.47.1-1-7.45-3-5.28-2.62-12.26-1.88-2,.21-3.95.46-6,.67-1.45.15-1.55.47-.16,1,7.54,3.08,5.28,2.65,12.35,1.89Z"/><path class="cls-9" d="M318.69,550.11c2.2-.26,4.35-.54,6.61-.76s2.35-.69.83-1.45c-7-3.49-5-3-13.89-2.06-2.71.29-5.35.62-8.08.91-1.93.2-2.39.59-1,1.28,7.44,3.77,4.84,3.24,14.39,2.21Z"/><path class="cls-9" d="M427.48,537.45l6-.7c1.46-.17,1.57-.52.41-1l-.2-.09c-7.42-3.37-5.21-2.89-13.43-2-2.39.25-4.7.54-7.09.81-1.6.18-1.73.54-.46,1.12,7.58,3.46,5.08,3,13.47,2.1l1.27-.15Z"/><path class="cls-9" d="M466.71,532.88c2.27-.26,4.09-.49,5.94-.69,1.45-.16,1.82-.47.47-1-1.58-.69-3.14-1.38-4.69-2.06a7.11,7.11,0,0,0-3.78-.53l-11.54,1.31c-1.55.17-1.53.54-.33,1.09l.19.09C460.54,534.37,457.75,533.84,466.71,532.88Z"/><path class="cls-9" d="M406.34,539.91c2.5-.29,4.46-.53,6.46-.75,1.58-.17,1.93-.51.61-1.11-1.58-.72-3.12-1.44-4.66-2.16a7.19,7.19,0,0,0-3.93-.54l-12.43,1.4c-1.5.17-1.75.5-.68,1.06l.38.19C399.6,541.52,396.93,540.9,406.34,539.91Z"/><path class="cls-9" d="M575.38,520.24c1.59-.19,3.17-.38,4.78-.55,1.32-.14,1.3-.47.06-1l-4.47-1.8a7.82,7.82,0,0,0-4-.52c-3.14.37-6.34.73-9.58,1.09-1.42.16-1.45.47-.07,1,7.55,3,5.2,2.6,12.23,1.86l1-.12Z"/><path class="cls-9" d="M486.33,530.6c1.71-.2,3.39-.42,5.14-.59s1.95-.51.47-1.16c-7.43-3.23-5.41-2.72-12.7-2-2.14.22-4.17.5-6.36.71-2,.19-2,.6-.31,1.31,7,3,4.88,2.67,12.59,1.83Z"/><path class="cls-9" d="M295.34,552.82l7.07-.82c1.69-.19,2-.58.78-1.17l-.19-.1c-7.31-3.71-4.77-3.22-14.46-2.19-2.78.3-5.5.63-8.29.94-1.87.21-2.17.62-1,1.26l4.37,2.29a8.12,8.12,0,0,0,4.89.61c2.24-.29,4.55-.54,6.82-.8Z"/><path class="cls-9" d="M271.34,555.62c2.33-.27,4.66-.53,7-.81,4-.49,1-1.47-.65-2.17-1.86-.81-2.2-2.47-7.3-2-4.89.44-9.5,1.06-14.29,1.59-1.93.22-2.19.63-1,1.28,7.44,3.92,4.61,3.39,14.72,2.3l1.52-.18Z"/><path class="cls-9" d="M504.83,528.45c1.67-.2,3.3-.41,5-.58s2-.52.34-1.2c-7.24-3-5.08-2.66-12.54-1.87-2.08.22-4.09.48-6.19.7-1.65.17-1.85.53-.41,1.16,7.47,3.25,5.4,2.69,12.64,1.93Z"/><path class="cls-9" d="M385.81,542.3c1.94-.23,3.84-.47,5.83-.67s2.28-.57.81-1.27c-7.3-3.46-5.34-3-13.55-2.09-2.5.27-4.93.58-7.46.84-2,.21-2,.64-.57,1.31,7.28,3.44,4.86,3,13.62,2Z"/><path class="cls-9" d="M341.93,547.41c2-.24,4.06-.5,6.14-.71,1.88-.19,2.23-.56.81-1.25-7.48-3.61-4.88-3.14-14.36-2.14-2.45.26-4.83.56-7.3.82-1.9.2-2.23.59-.85,1.27,7.55,3.71,4.73,3.17,14.15,2.17Z"/><path class="cls-9" d="M447.56,535.11c1.89-.22,3.74-.45,5.65-.65,1.54-.16,1.76-.49.42-1.07-1.6-.69-3.14-1.39-4.69-2.09a7.12,7.12,0,0,0-3.83-.53l-11.56,1.31c-1.55.17-1.73.52-.44,1.09q2.36,1.06,4.67,2.12a6.87,6.87,0,0,0,3.85.52C443.6,535.56,445.59,535.34,447.56,535.11Z"/><path class="cls-9" d="M540.94,524.25c1.67-.2,3.31-.4,5-.58,1.38-.15,1.46-.45.14-1-1.53-.62-3-1.24-4.48-1.86a7.32,7.32,0,0,0-3.81-.57l-10.26,1.16c-1.39.15-1.43.48-.16,1,1.51.62,3,1.25,4.48,1.88a7.32,7.32,0,0,0,4.07.54C537.55,524.62,539.27,524.44,540.94,524.25Z"/><polygon class="cls-4" points="568.05 507.19 207.77 547.08 210.74 552.62 570.66 513.05 568.05 507.19"/><path class="cls-10" d="M677.51,311.14c-1,1.7-50.31,30.25-81.28,83.55l90.94-16Z"/><path class="cls-11" d="M639.21,416.07l46.05-18.46a39.15,39.15,0,0,0,7-4.45,19.75,19.75,0,0,0,7.07-11.75L711,320.28l-28,19L678.63,370s-.64,4.14-9.7,5.1l-23.73,4.34a19.64,19.64,0,0,1-20.82-9.84,15.63,15.63,0,0,1-1.6-4.24l-30.29,30.83,23.46,15.88S627.33,420.7,639.21,416.07Z"/><path class="cls-12" d="M806,343.3c0,15-10.71,27.17-23.9,27.17H657.78c-13.2,0-23.9-12.16-23.9-27.17V254.88c0-12.64,60.51-46.5,79.63-56.89a11.69,11.69,0,0,1,11.14-.21c19,10.13,81.32,44.37,81.32,57.1Z"/><path class="cls-6" d="M779.61,194.61H664.43c-5.52,0-10.14,3.69-10.14,8.37V360.19c0,4.68,4.55,8.42,10.07,8.42l.07-.05H779.61v.05c5.18,0,9.43-3.31,9.94-7.58a6.87,6.87,0,0,0,0-.84V203C789.59,198.3,785.13,194.61,779.61,194.61Z"/><path class="cls-13" d="M755.94,196.47l3.89,33.37a4,4,0,0,0,4,4.65c4.6.28,25.76-5.2,25.76-5.2Z"/><path class="cls-14" d="M755.94,194.65v30a4,4,0,0,0,4,4.65c4.6.28,29.65,0,29.65,0Z"/><rect class="cls-15" x="667.16" y="206.55" width="70.69" height="1.13"/><rect class="cls-15" x="667.16" y="218.35" width="78.63" height="1.13"/><rect class="cls-15" x="667.16" y="230.15" width="78.63" height="1.13"/><rect class="cls-15" x="667.16" y="241.95" width="108.53" height="1.13"/><rect class="cls-15" x="667.16" y="253.75" width="108.53" height="1.13"/><rect class="cls-15" x="667.16" y="265.55" width="108.53" height="1.13"/><rect class="cls-15" x="667.16" y="277.34" width="108.53" height="1.13"/><rect class="cls-15" x="667.16" y="289.14" width="108.53" height="1.13"/><rect class="cls-15" x="667.16" y="300.94" width="78.63" height="1.13"/><path class="cls-16" d="M806,256.42v87.73c-.5,7.23-2.71,12.47-5.55,16.24a25.75,25.75,0,0,1-17,9.75l-63.48-62.82Z"/><path class="cls-16" d="M719.93,307.33l-63.48,62.82a25.76,25.76,0,0,1-17-9.75c-2.84-3.77-5-9-5.55-16.24V256.42Z"/><path class="cls-12" d="M800.42,360.39a25.75,25.75,0,0,1-17,9.75h-127a25.76,25.76,0,0,1-17-9.75l80.5-53.07Z"/><path class="cls-11" d="M636.24,347.07c2.8-1.71,14.39-7.63,25.84-8.87l23.41-3s7.82-1.35,10.09-9.13a5.54,5.54,0,0,0,.2-1.1c.17-2.16.3-9.68-5.73-14.47a5.64,5.64,0,0,0-2.31-1.1c-1.9-.42-5.89-.8-13.29.36l-63.75,7.57s-16,2.63-26.3,7.54l-.48.2c-1.61.59-10.76,4-14.85,6.66a5.7,5.7,0,0,1-2.2.85l-9.55,1.54a.3.3,0,0,0-.25.34l8.08,50.91,5.61-.89a5.68,5.68,0,0,1,3.89.78l17.78,11,28.17-28.68c.65-.66,1.49-1.46,2.13-2.13S617.19,358.66,636.24,347.07Z"/><path class="cls-17" d="M674.34,316.33l2.29,12.84a2,2,0,0,0,2.35,1.6l7-1.4s5.49-1.44,5.11-8.63c0,0-.54-6-6.2-7.74,0,0-2.31-.53-6.68.62L676,314A2,2,0,0,0,674.34,316.33Z"/><rect class="cls-3" x="525.58" y="319.51" width="38.36" height="86.51" rx="8.22" ry="8.22" transform="translate(-49.84 89.24) rotate(-8.96)"/><path class="cls-18" d="M521.73,327.46,360.07,353v-.07l161.63-25.6Z"/><path class="cls-19" d="M528.13,368.19l5.57,35.41L371.16,429.25a158,158,0,0,1-9.83-34.73Z"/><path class="cls-18" d="M360.07,353l161.66-25.52,6.4,40.72-166.8,26.33A159.93,159.93,0,0,1,360.07,353Z"/></svg>