<svg id="step1" data-name="step1" xmlns="http://www.w3.org/2000/svg" width="900" height="900" viewBox="0 0 900 900"><defs><style>.cls-1{fill:#ebeff3;}.cls-2{fill:#77baaf;}.cls-3{fill:#fff;}.cls-4{fill:#1d1819;}.cls-5{fill:#598d8a;}.cls-6{fill:#fefffe;}.cls-7{fill:#e0e7e6;}.cls-8{fill:#080607;opacity:0.26;}.cls-9{fill:#f7d3a4;}.cls-10{fill:#f7f7f6;}.cls-11{fill:none;}.cls-12{fill:#22222e;}</style></defs><title>Plan de travail 1</title><circle class="cls-1" cx="450" cy="450" r="450"/><rect class="cls-2" x="259.38" y="359.44" width="417.28" height="291.58" rx="25.21" ry="25.21"/><rect class="cls-3" x="284.46" y="377.56" width="365.31" height="149.57" rx="9.53" ry="9.53"/><rect class="cls-4" x="291.36" y="385.02" width="22.66" height="13.85" rx="4.8" ry="4.8"/><rect class="cls-4" x="316.75" y="385.02" width="22.66" height="13.85" rx="4.8" ry="4.8"/><rect class="cls-4" x="342.15" y="385.02" width="22.66" height="13.85" rx="4.8" ry="4.8"/><rect class="cls-4" x="367.54" y="385.02" width="22.66" height="13.85" rx="4.8" ry="4.8"/><rect class="cls-4" x="392.93" y="385.02" width="22.66" height="13.85" rx="4.8" ry="4.8"/><rect class="cls-4" x="418.33" y="385.02" width="22.66" height="13.85" rx="4.8" ry="4.8"/><rect class="cls-4" x="443.72" y="385.02" width="22.66" height="13.85" rx="4.8" ry="4.8"/><rect class="cls-4" x="469.12" y="385.02" width="22.66" height="13.85" rx="4.8" ry="4.8"/><rect class="cls-4" x="494.51" y="385.02" width="22.66" height="13.85" rx="4.8" ry="4.8"/><rect class="cls-4" x="519.9" y="385.02" width="22.66" height="13.85" rx="4.8" ry="4.8"/><rect class="cls-4" x="545.3" y="385.02" width="22.66" height="13.85" rx="4.8" ry="4.8"/><rect class="cls-4" x="570.69" y="385.02" width="22.66" height="13.85" rx="4.8" ry="4.8"/><rect class="cls-4" x="596.09" y="385.02" width="22.66" height="13.85" rx="4.8" ry="4.8"/><rect class="cls-4" x="621.48" y="385.02" width="22.66" height="13.85" rx="4.8" ry="4.8"/><rect class="cls-4" x="292.16" y="400.94" width="20.55" height="20.55" rx="1.07" ry="1.07"/><rect class="cls-4" x="329.43" y="424.74" width="20.55" height="20.55" rx="1.07" ry="1.07"/><rect class="cls-4" x="334.92" y="448.53" width="20.55" height="20.55" rx="1.07" ry="1.07"/><rect class="cls-4" x="347.71" y="472.33" width="20.55" height="20.55" rx="1.07" ry="1.07"/><rect class="cls-4" x="292.16" y="496.11" width="20.55" height="23.17" rx="1.14" ry="1.14"/><rect class="cls-4" x="317.19" y="496.11" width="20.55" height="23.17" rx="1.14" ry="1.14"/><rect class="cls-4" x="341.47" y="496.11" width="20.55" height="23.17" rx="1.14" ry="1.14"/><rect class="cls-4" x="365.94" y="496.11" width="26.79" height="23.17" rx="1.3" ry="1.3"/><rect class="cls-4" x="518.08" y="496.11" width="26.79" height="23.17" rx="1.3" ry="1.3"/><rect class="cls-4" x="549.5" y="496.11" width="20.27" height="23.17" rx="1.13" ry="1.13"/><rect class="cls-4" x="396.66" y="496.11" width="118.45" height="23.17" rx="2.73" ry="2.73"/><rect class="cls-5" x="400.39" y="539.82" width="136.07" height="98.81" rx="6.54" ry="6.54"/><rect class="cls-4" x="372.19" y="472.33" width="20.55" height="20.55" rx="1.07" ry="1.07"/><rect class="cls-4" x="396.66" y="472.33" width="20.55" height="20.55" rx="1.07" ry="1.07"/><rect class="cls-4" x="421.14" y="472.33" width="20.55" height="20.55" rx="1.07" ry="1.07"/><rect class="cls-4" x="445.61" y="472.33" width="20.55" height="20.55" rx="1.07" ry="1.07"/><rect class="cls-4" x="470.09" y="472.33" width="20.55" height="20.55" rx="1.07" ry="1.07"/><rect class="cls-4" x="494.56" y="472.33" width="20.55" height="20.55" rx="1.07" ry="1.07"/><rect class="cls-4" x="519.04" y="472.33" width="20.55" height="20.55" rx="1.07" ry="1.07"/><rect class="cls-4" x="543.51" y="472.33" width="20.55" height="20.55" rx="1.07" ry="1.07"/><rect class="cls-4" x="573.35" y="507.7" width="20.92" height="11.94" rx="4.16" ry="4.16"/><rect class="cls-4" x="597.9" y="507.7" width="20.92" height="11.94" rx="4.16" ry="4.16"/><rect class="cls-4" x="597.9" y="494.32" width="20.92" height="11.94" rx="4.16" ry="4.16"/><rect class="cls-4" x="622.45" y="507.7" width="20.92" height="11.94" rx="4.16" ry="4.16"/><rect class="cls-4" x="359.62" y="448.53" width="20.55" height="20.55" rx="1.07" ry="1.07"/><rect class="cls-4" x="384.32" y="448.53" width="20.55" height="20.55" rx="1.07" ry="1.07"/><rect class="cls-4" x="409.02" y="448.53" width="20.55" height="20.55" rx="1.07" ry="1.07"/><rect class="cls-4" x="433.58" y="448.53" width="20.55" height="20.55" rx="1.07" ry="1.07"/><rect class="cls-4" x="458.28" y="448.53" width="20.55" height="20.55" rx="1.07" ry="1.07"/><rect class="cls-4" x="481.92" y="448.53" width="20.55" height="20.55" rx="1.07" ry="1.07"/><rect class="cls-4" x="506.4" y="448.53" width="20.55" height="20.55" rx="1.07" ry="1.07"/><rect class="cls-4" x="530.87" y="448.53" width="20.55" height="20.55" rx="1.07" ry="1.07"/><rect class="cls-4" x="555.19" y="448.53" width="20.55" height="20.55" rx="1.07" ry="1.07"/><rect class="cls-4" x="579.52" y="448.53" width="20.55" height="20.55" rx="1.07" ry="1.07"/><rect class="cls-4" x="567.75" y="472.33" width="20.55" height="20.55" rx="1.07" ry="1.07"/><rect class="cls-4" x="604.75" y="448.53" width="38.73" height="20.55" rx="1.47" ry="1.47"/><rect class="cls-4" x="591.98" y="472.33" width="51.49" height="20.55" rx="1.7" ry="1.7"/><rect class="cls-4" x="292.16" y="448.53" width="39.13" height="20.55" rx="1.48" ry="1.48"/><rect class="cls-4" x="291.76" y="472.33" width="52.22" height="20.55" rx="1.71" ry="1.71"/><rect class="cls-4" x="354.01" y="424.74" width="20.55" height="20.55" rx="1.07" ry="1.07"/><rect class="cls-4" x="378.43" y="424.74" width="20.55" height="20.55" rx="1.07" ry="1.07"/><rect class="cls-4" x="403.01" y="424.74" width="20.55" height="20.55" rx="1.07" ry="1.07"/><rect class="cls-4" x="427.58" y="424.74" width="20.55" height="20.55" rx="1.07" ry="1.07"/><rect class="cls-4" x="452.01" y="424.74" width="20.55" height="20.55" rx="1.07" ry="1.07"/><rect class="cls-4" x="475.88" y="424.74" width="20.55" height="20.55" rx="1.07" ry="1.07"/><rect class="cls-4" x="500.65" y="424.74" width="20.55" height="20.55" rx="1.07" ry="1.07"/><rect class="cls-4" x="525.13" y="424.74" width="20.55" height="20.55" rx="1.07" ry="1.07"/><rect class="cls-4" x="549.2" y="424.74" width="20.55" height="20.55" rx="1.07" ry="1.07"/><rect class="cls-4" x="574.28" y="424.74" width="20.55" height="20.55" rx="1.07" ry="1.07"/><rect class="cls-4" x="598.25" y="424.74" width="20.55" height="20.55" rx="1.07" ry="1.07"/><rect class="cls-4" x="622.93" y="424.74" width="20.55" height="20.55" rx="1.07" ry="1.07"/><rect class="cls-4" x="317.09" y="400.94" width="20.55" height="20.55" rx="1.07" ry="1.07"/><rect class="cls-4" x="341.27" y="400.94" width="20.55" height="20.55" rx="1.07" ry="1.07"/><rect class="cls-4" x="366.04" y="400.94" width="20.55" height="20.55" rx="1.07" ry="1.07"/><rect class="cls-4" x="390.2" y="400.94" width="20.55" height="20.55" rx="1.07" ry="1.07"/><rect class="cls-4" x="415.12" y="400.94" width="20.55" height="20.55" rx="1.07" ry="1.07"/><rect class="cls-4" x="439.06" y="400.94" width="20.55" height="20.55" rx="1.07" ry="1.07"/><rect class="cls-4" x="463.94" y="400.94" width="20.55" height="20.55" rx="1.07" ry="1.07"/><rect class="cls-4" x="488.12" y="400.94" width="20.55" height="20.55" rx="1.07" ry="1.07"/><rect class="cls-4" x="512.94" y="400.94" width="20.55" height="20.55" rx="1.07" ry="1.07"/><rect class="cls-4" x="537.72" y="400.94" width="20.55" height="20.55" rx="1.07" ry="1.07"/><rect class="cls-4" x="562.25" y="400.94" width="20.55" height="20.55" rx="1.07" ry="1.07"/><rect class="cls-4" x="585.81" y="400.94" width="20.55" height="20.55" rx="1.07" ry="1.07"/><rect class="cls-4" x="610.29" y="400.94" width="32.91" height="20.55" rx="2.98" ry="2.98"/><rect class="cls-4" x="292.16" y="424.74" width="32.91" height="20.55" rx="2.98" ry="2.98"/><rect class="cls-4" x="302.22" y="353.05" width="330.37" height="8.78"/><path class="cls-4" d="M669.78,353.05H265.47a8.15,8.15,0,0,1-7.89-6.11l-42.67-165.2a2.47,2.47,0,0,1,2.39-3.08h499.8a2.85,2.85,0,0,1,2.76,3.55L678.09,346.59A8.58,8.58,0,0,1,669.78,353.05Z"/><path class="cls-6" d="M720.41,178.46l-505.57.21a66.4,66.4,0,0,1,5-5,53.36,53.36,0,0,1,6.57-4H707.57s5.28,3.11,6.55,4S720.41,178.46,720.41,178.46Z"/><polygon class="cls-7" points="667.23 333.72 269.44 333.72 234.24 187.62 702.06 187.62 667.23 333.72"/><path class="cls-8" d="M624,682.75l-1.54-6s-16.66.51-23.55-6.47c0,0-58.78-56.48-67.65-66.64,0,0-4.45-19.44,15.8-16.75,0,0,3.67-.88,8.92,3.39l23.56,21.14-28.5-96.28a18.12,18.12,0,0,1-.25-9.56A13.94,13.94,0,0,1,561.51,495s3.74-1.08,8.49,1.52c4.09,2.23,5.45,6.12,6.79,10.58l25.7,75.31L578.72,496.5c-1.4-4.77-3.15-13.58-.37-17.71,2.37-3.52,7.68-6.49,13.24-6.46,0,0,9.63.73,14.16,12.29l25.62,82.22-17.13-68c-1.5-5.47-4.41-18.65,1.08-22.63a15,15,0,0,1,5.75-2.09s7.24-3.42,13.62,6.46a53,53,0,0,1,3.62,8.8l24.24,73.9-13.13-50.66c-1.53-5.26-1.53-11.61,2.82-14.94a10.91,10.91,0,0,1,5.18-2.22s11-2.69,15.46,11l23.71,90.4,4.27,20.7a55.79,55.79,0,0,1,.94,16.72,41,41,0,0,1-2.95,12.16s-3.09,8-5.2,8.7l2.43,7.67Z"/><path class="cls-8" d="M286.18,637.82l1.54-6s16.66.51,23.55-6.47c0,0,58.78-56.48,67.65-66.64,0,0,4.45-19.44-15.8-16.75,0,0-3.67-.88-8.92,3.39l-23.56,21.14,28.5-96.28a18.12,18.12,0,0,0,.25-9.56,13.94,13.94,0,0,0-10.69-10.6S345,449,340.2,451.6c-4.09,2.23-5.45,6.12-6.79,10.58l-25.7,75.31,23.78-85.92c1.4-4.77,3.15-13.58.37-17.71-2.37-3.52-7.68-6.49-13.24-6.46,0,0-9.63.73-14.16,12.29l-25.62,82.22,17.13-68c1.5-5.47,4.41-18.65-1.08-22.63a15,15,0,0,0-5.75-2.09s-7.24-3.42-13.62,6.46a53,53,0,0,0-3.62,8.8l-24.24,73.9,13.13-50.66c1.53-5.26,1.53-11.61-2.82-14.94a10.91,10.91,0,0,0-5.18-2.22s-11-2.69-15.46,11l-23.71,90.4-4.27,20.7a55.79,55.79,0,0,0-.94,16.72,41,41,0,0,0,2.95,12.16s3.09,8,5.2,8.7l-2.43,7.67Z"/><path class="cls-9" d="M627.08,682.29l-1.54-6s-16.66.51-23.55-6.47c0,0-58.78-56.48-67.65-66.64,0,0-4.45-19.44,15.8-16.75,0,0,3.67-.88,8.92,3.39L582.62,611l-28.5-96.28a18.12,18.12,0,0,1-.25-9.56,13.94,13.94,0,0,1,10.69-10.6s3.74-1.08,8.49,1.52c4.09,2.23,5.45,6.12,6.79,10.58L605.55,582,581.77,496c-1.4-4.77-3.15-13.58-.37-17.71,2.37-3.52,7.68-6.49,13.24-6.46,0,0,9.63.73,14.16,12.29l25.62,82.22-17.13-68c-1.5-5.47-4.41-18.65,1.08-22.63a15,15,0,0,1,5.75-2.09s7.24-3.42,13.62,6.46a53,53,0,0,1,3.62,8.8l24.24,73.9-13.13-50.66c-1.53-5.26-1.53-11.61,2.82-14.94a10.91,10.91,0,0,1,5.18-2.22s11-2.69,15.46,11l23.71,90.4,4.27,20.7a55.79,55.79,0,0,1,.94,16.72A41,41,0,0,1,701.88,646s-3.09,8-5.2,8.7l2.43,7.67Z"/><rect class="cls-3" x="659.55" y="630.34" width="9.97" height="90.62" transform="translate(192.74 1497.54) rotate(-105.62)"/><circle class="cls-3" cx="707.23" cy="701.76" r="3.87" transform="translate(-285.62 618.75) rotate(-40)"/><circle class="cls-3" cx="710.78" cy="713.8" r="3.87" transform="translate(-292.53 623.83) rotate(-40)"/><circle class="cls-3" cx="714.08" cy="726.05" r="3.87" transform="translate(-299.63 628.82) rotate(-40)"/><path class="cls-10" d="M562.41,520.77l15.43-4.56a2.45,2.45,0,0,0,1.64-3.1l-2.67-8.39s-2.52-6.53-11.27-5.09c0,0-7.29,1.48-8.64,8.65,0,0-.33,2.91,1.67,8.1l.79,2.71A2.45,2.45,0,0,0,562.41,520.77Z"/><path class="cls-10" d="M589.62,498l14.77-4.37a2.35,2.35,0,0,0,1.57-3l-2.55-8s-2.41-6.25-10.79-4.87c0,0-7,1.42-8.27,8.28,0,0-.32,2.78,1.6,7.76l.75,2.59A2.35,2.35,0,0,0,589.62,498Z"/><path class="cls-10" d="M622.71,495.34l12.87-3.18a2,2,0,0,0,1.47-2.49l-1.88-7s-1.83-5.47-9.09-4.61c0,0-6.06.95-7.43,6.8,0,0-.38,2.38,1.07,6.73l.55,2.26A2,2,0,0,0,622.71,495.34Z"/><path class="cls-10" d="M659.35,516.23l12.59-3.11a2,2,0,0,0,1.43-2.43l-1.84-6.85s-1.79-5.35-8.89-4.51c0,0-5.92.93-7.27,6.65,0,0-.37,2.33,1.05,6.58l.53,2.21A2,2,0,0,0,659.35,516.23Z"/><path class="cls-10" d="M545.48,609l6.56-7.28a1.66,1.66,0,0,0-.49-2.35l-5.32-4.28s-4.38-3.2-8.63.24a6.28,6.28,0,0,0-.9,7.76,18.41,18.41,0,0,0,4.63,4.4l1.67,1.4A1.82,1.82,0,0,0,545.48,609Z"/><path class="cls-9" d="M284.69,635.16l1.54-6s16.66.51,23.55-6.47c0,0,58.78-56.48,67.65-66.64,0,0,4.45-19.44-15.8-16.75,0,0-3.67-.88-8.92,3.39l-23.56,21.14,28.5-96.28a18.12,18.12,0,0,0,.25-9.56,13.94,13.94,0,0,0-10.69-10.6s-3.74-1.08-8.49,1.52c-4.09,2.23-5.45,6.12-6.79,10.58l-25.7,75.31L330,448.91c1.4-4.77,3.15-13.58.37-17.71-2.37-3.52-7.68-6.49-13.24-6.46,0,0-9.63.73-14.16,12.29l-25.62,82.22,17.13-68c1.5-5.47,4.41-18.65-1.08-22.63a15,15,0,0,0-5.75-2.09S280.42,423.12,274,433a53,53,0,0,0-3.62,8.8l-24.24,73.9L259.31,465c1.53-5.26,1.53-11.61-2.82-14.94a10.91,10.91,0,0,0-5.18-2.22s-11-2.69-15.46,11l-23.71,90.4L207.88,570a55.79,55.79,0,0,0-.94,16.72,41,41,0,0,0,2.95,12.16s3.09,8,5.2,8.7l-2.43,7.67Z"/><rect class="cls-3" x="243.57" y="583.52" width="9.97" height="90.62" transform="matrix(0.27, -0.96, 0.96, 0.27, -423.97, 698.91)"/><circle class="cls-3" cx="205.85" cy="654.94" r="3.87" transform="matrix(0.64, -0.77, 0.77, 0.64, -428.19, 391.68)"/><circle class="cls-3" cx="202.31" cy="666.98" r="3.87" transform="translate(-438.68 393.26) rotate(-50)"/><circle class="cls-3" cx="199.01" cy="679.23" r="3.87" transform="translate(-449.24 395.1) rotate(-50)"/><path class="cls-10" d="M349.36,473.64l-15.43-4.56a2.45,2.45,0,0,1-1.64-3.1l2.67-8.39s2.52-6.53,11.27-5.09c0,0,7.29,1.48,8.64,8.65,0,0,.33,2.91-1.67,8.1l-.79,2.71A2.45,2.45,0,0,1,349.36,473.64Z"/><path class="cls-10" d="M322.15,450.92l-14.77-4.37a2.35,2.35,0,0,1-1.57-3l2.55-8s2.41-6.25,10.79-4.87c0,0,7,1.42,8.27,8.28,0,0,.32,2.78-1.6,7.76l-.75,2.59A2.35,2.35,0,0,1,322.15,450.92Z"/><path class="cls-10" d="M289.06,448.22,276.18,445a2,2,0,0,1-1.47-2.49l1.88-7s1.83-5.47,9.09-4.61c0,0,6.06.95,7.43,6.8,0,0,.38,2.38-1.07,6.73l-.55,2.26A2,2,0,0,1,289.06,448.22Z"/><path class="cls-10" d="M252.42,469.1,239.83,466a2,2,0,0,1-1.43-2.43l1.84-6.85s1.79-5.35,8.89-4.51c0,0,5.92.93,7.27,6.65,0,0,.37,2.33-1.05,6.58l-.53,2.21A2,2,0,0,1,252.42,469.1Z"/><path class="cls-10" d="M366.29,561.91l-6.56-7.28a1.66,1.66,0,0,1,.49-2.35l5.32-4.28s4.38-3.2,8.63.24a6.28,6.28,0,0,1,.9,7.76,18.41,18.41,0,0,1-4.63,4.4l-1.67,1.4A1.82,1.82,0,0,1,366.29,561.91Z"/><path class="cls-11" d="M612.7,695.31,713.83,667l41.81,113.23C844.42,698.07,900,580.53,900,450,900,201.47,698.53,0,450,0S0,201.47,0,450C0,582.47,57.25,701.57,148.35,783.92l50.91-163.7,101.14,28.27L237.88,847a450.65,450.65,0,0,0,431.73-4.09Z"/><path class="cls-12" d="M612.7,695.31,669.6,842.87a451.4,451.4,0,0,0,86-62.6L713.83,667Z"/><path class="cls-12" d="M199.25,620.22l-50.91,163.7a451.14,451.14,0,0,0,89.53,63l62.51-198.46Z"/></svg>