<svg id="step2" data-name="step2" xmlns="http://www.w3.org/2000/svg" width="900" height="900" viewBox="0 0 900 900"><defs><style>.cls-1{fill:#ebeff3;}.cls-2{fill:#1f1d26;}.cls-3{fill:#161317;}.cls-4{fill:#f9f7f6;}.cls-5{fill:#1e1c27;}.cls-6{fill:#dc4f1e;}.cls-7{fill:#d2d1cb;opacity:0.16;}.cls-8{fill:#15141b;}.cls-9{fill:#e3322b;}</style></defs><title>Plan de travail 1</title><circle class="cls-1" cx="450" cy="450" r="450"/><path class="cls-2" d="M411,527.36H305.82s-13.39,52.06-18.59,57.26H429.64C424.43,579.42,411,527.36,411,527.36Z"/><path class="cls-3" d="M448,586.66c0,3-1.17,5.37-2.6,5.37h-174c-1.44,0-2.6-2.41-2.6-5.37h0c0-3,1.16-5.37,2.6-5.37h174c1.44,0,2.6,2.41,2.6,5.37Z"/><path class="cls-4" d="M103.65,496.38v30.28c0,8.15,10.61,14.8,23.1,14.8H590.05c12.48,0,23.17-6.66,23.17-14.8V496.38Z"/><path class="cls-5" d="M613.22,241.54c0-14.72-10.68-25.89-23.17-25.89H126.74c-12.48,0-23.1,11.16-23.1,25.89V496.38H613.22Z"/><path class="cls-6" d="M592.21,256c0-12.85-9.66-22.73-21.12-22.73H145.68c-11.46,0-21,9.88-21,22.73V478H592.21Z"/><circle class="cls-5" cx="359.39" cy="519.45" r="14.09"/><path class="cls-7" d="M591.77,427.12,268.27,233.76h302.6a20.89,20.89,0,0,1,20.89,20.89Z"/><circle class="cls-4" cx="644.97" cy="512.96" r="173.63"/><path class="cls-8" d="M645,694.35a180.84,180.84,0,1,1,70.61-14.26A180.25,180.25,0,0,1,645,694.35Zm0-347.25C553.51,347.1,479.1,421.5,479.1,513S553.51,678.83,645,678.83,810.83,604.42,810.83,513,736.43,347.1,645,347.1Z"/><path class="cls-8" d="M645,379.38a1.44,1.44,0,0,1-1.44-1.44v-25a1.44,1.44,0,0,1,2.88,0v25A1.44,1.44,0,0,1,645,379.38Z"/><path class="cls-8" d="M658.68,375.09h0a.41.41,0,0,1-.37-.4s0,0,0,0l1.22-12.5a.41.41,0,0,1,.81,0s0,0,0,0l-1.22,12.5A.41.41,0,0,1,658.68,375.09Z"/><path class="cls-8" d="M668.95,376.5h-.07a.41.41,0,0,1-.34-.4.43.43,0,0,1,0-.07l2.15-12.37a.41.41,0,0,1,.81.07.46.46,0,0,1,0,.07L670.43,370h0l-1.07,6.19A.41.41,0,0,1,668.95,376.5Z"/><path class="cls-8" d="M679.09,378.67H679a.41.41,0,0,1-.31-.4.4.4,0,0,1,0-.1L681.76,366a.41.41,0,0,1,.8.1.4.4,0,0,1,0,.1L681,372.27h0l-1.53,6.09A.41.41,0,0,1,679.09,378.67Z"/><path class="cls-8" d="M689,381.59l-.13,0a.41.41,0,0,1-.26-.52l4-11.92a.41.41,0,1,1,.77.26l-4,11.92A.41.41,0,0,1,689,381.59Z"/><path class="cls-8" d="M698.74,385.24a.4.4,0,0,1-.16,0,.41.41,0,0,1-.25-.38.41.41,0,0,1,0-.16l2.42-5.79h0l2.42-5.79a.41.41,0,1,1,.75.31L699.12,385A.41.41,0,0,1,698.74,385.24Z"/><path class="cls-8" d="M727.43,401.53a.41.41,0,0,1-.33-.65l7.44-10.12a.41.41,0,1,1,.66.48l-7.44,10.12A.41.41,0,0,1,727.43,401.53Z"/><path class="cls-8" d="M735.54,408a.41.41,0,0,1-.31-.67l4.09-4.77h0l4.09-4.77a.41.41,0,0,1,.62.53l-8.17,9.54A.41.41,0,0,1,735.54,408Z"/><path class="cls-8" d="M743.15,415a.41.41,0,0,1-.29-.69l8.86-8.9a.41.41,0,1,1,.58.57l-8.86,8.9A.41.41,0,0,1,743.15,415Z"/><path class="cls-8" d="M750.21,422.63a.41.41,0,0,1-.27-.72l4.75-4.11h0l4.75-4.11a.41.41,0,1,1,.53.62l-9.5,8.21A.41.41,0,0,1,750.21,422.63Z"/><rect class="cls-8" x="755.44" y="426.18" width="12.56" height="0.81" transform="translate(-104.19 537.87) rotate(-36.57)"/><path class="cls-8" d="M773,459.4a.41.41,0,0,1-.38-.25.4.4,0,0,1,0-.16.41.41,0,0,1,.25-.38l11.56-4.89.32.75-11.56,4.89A.41.41,0,0,1,773,459.4Z"/><path class="cls-8" d="M776.68,469.1a.41.41,0,0,1-.13-.79l11.9-4a.41.41,0,1,1,.26.77l-11.9,4Z"/><path class="cls-8" d="M779.61,479a.41.41,0,0,1-.39-.31.42.42,0,0,1,0-.1.41.41,0,0,1,.31-.39l6.08-1.56h0l6.08-1.56a.41.41,0,0,1,.5.29.42.42,0,0,1,0,.1.41.41,0,0,1-.31.39L779.71,479Z"/><path class="cls-8" d="M781.8,489.18a.41.41,0,0,1-.4-.34.42.42,0,0,1,0-.07.41.41,0,0,1,.34-.4l12.36-2.2a.41.41,0,1,1,.14.8l-6.18,1.1h0l-6.18,1.1Z"/><path class="cls-8" d="M783.22,499.45a.41.41,0,0,1-.4-.37.41.41,0,0,1,0,0,.41.41,0,0,1,.37-.4l12.49-1.28a.41.41,0,0,1,.45.36s0,0,0,0a.41.41,0,0,1-.37.41l-12.49,1.28Z"/><path class="cls-8" d="M795,534.14H795l-12.44-1.7a.41.41,0,1,1,.11-.81l12.44,1.7a.41.41,0,0,1-.06.81Z"/><path class="cls-8" d="M793.08,545.27H793l-12.28-2.63a.41.41,0,0,1-.32-.4.42.42,0,0,1,0-.09.41.41,0,0,1,.48-.31l12.28,2.63a.41.41,0,0,1,.32.4.42.42,0,0,1,0,.09A.41.41,0,0,1,793.08,545.27Z"/><path class="cls-8" d="M790.29,556.23l-.11,0-12.05-3.54a.41.41,0,0,1-.29-.39.4.4,0,0,1,0-.12.41.41,0,0,1,.51-.28l12,3.54a.41.41,0,0,1,.29.39.4.4,0,0,1,0,.12A.41.41,0,0,1,790.29,556.23Z"/><path class="cls-8" d="M786.69,566.94l-.14,0-11.75-4.42a.41.41,0,0,1,.29-.76l11.75,4.42a.41.41,0,0,1-.14.79Z"/><path class="cls-8" d="M782.3,577.36a.41.41,0,0,1-.17,0L770.74,572a.41.41,0,0,1,.34-.74l11.39,5.29a.41.41,0,0,1-.17.78Z"/><rect class="cls-8" x="758.03" y="597.33" width="0.81" height="12.56" transform="translate(-186.25 820.73) rotate(-51.46)"/><path class="cls-8" d="M756,616.5a.41.41,0,0,1-.28-.11l-9.21-8.54a.41.41,0,1,1,.55-.6l9.21,8.54a.41.41,0,0,1-.28.71Z"/><path class="cls-8" d="M748,624.49a.41.41,0,0,1-.3-.13l-8.55-9.2a.41.41,0,0,1,.6-.55l8.55,9.2a.41.41,0,0,1-.3.68Z"/><path class="cls-8" d="M739.39,631.86a.41.41,0,0,1-.32-.15l-3.92-4.91h0l-3.92-4.91a.41.41,0,1,1,.64-.51l7.84,9.81a.41.41,0,0,1-.32.66Z"/><path class="cls-8" d="M730.29,638.57a.41.41,0,0,1-.34-.18L722.87,628a.41.41,0,0,1,.67-.46l7.09,10.37a.41.41,0,0,1-.34.64Z"/><path class="cls-8" d="M698.37,655.15a.41.41,0,0,1-.38-.26l-4.44-11.75a.41.41,0,0,1,.76-.29l4.44,11.75a.41.41,0,0,1-.24.53Z"/><path class="cls-8" d="M687.65,658.74a.41.41,0,0,1-.39-.29l-3.55-12a.41.41,0,0,1,0-.12.41.41,0,0,1,.8-.12l3.55,12a.41.41,0,0,1-.28.51Z"/><path class="cls-8" d="M676.69,661.52a.41.41,0,0,1-.4-.32L675,655.06h0l-1.32-6.14a.39.39,0,0,1,0-.09.41.41,0,0,1,.81-.09L677.09,661a.39.39,0,0,1,0,.09.41.41,0,0,1-.32.4Z"/><path class="cls-8" d="M665.55,663.47a.41.41,0,0,1-.4-.35l-.86-6.22h0l-.86-6.22a.42.42,0,0,1,0-.06.41.41,0,0,1,.81-.05L666,663a.42.42,0,0,1,0,.06.41.41,0,0,1-.35.4Z"/><path class="cls-8" d="M654.3,664.59a.41.41,0,0,1-.41-.38l-.79-12.53v0a.41.41,0,0,1,.38-.41.41.41,0,0,1,.43.38l.79,12.53v0a.41.41,0,0,1-.38.41Z"/><path class="cls-8" d="M624.4,663.48h-.06a.41.41,0,0,1-.35-.4.41.41,0,0,1,0-.06l1.69-12.44a.41.41,0,1,1,.81.11l-.84,6.22h0l-.84,6.22A.41.41,0,0,1,624.4,663.48Z"/><path class="cls-8" d="M613.26,661.53h-.09a.41.41,0,0,1-.32-.4.41.41,0,0,1,0-.08l2.61-12.28a.41.41,0,0,1,.81.08.42.42,0,0,1,0,.08l-2.61,12.28A.41.41,0,0,1,613.26,661.53Z"/><path class="cls-8" d="M602.3,658.75l-.11,0a.41.41,0,0,1-.28-.51l3.52-12.05a.41.41,0,0,1,.78.23l-1.76,6h0l-1.76,6A.41.41,0,0,1,602.3,658.75Z"/><path class="cls-8" d="M592,654.9l-.76-.29,2.2-5.88h0l2.2-5.88a.41.41,0,1,1,.76.29Z"/><path class="cls-8" d="M581.16,650.79a.41.41,0,0,1-.37-.58l5.27-11.4a.41.41,0,0,1,.74.34l-5.27,11.4A.41.41,0,0,1,581.16,650.79Z"/><path class="cls-8" d="M552.12,633.1a.41.41,0,0,1-.32-.66l7.68-9.93.64.5-7.68,9.93A.41.41,0,0,1,552.12,633.1Z"/><path class="cls-8" d="M543.45,625.84a.41.41,0,0,1-.3-.68l8.4-9.33a.41.41,0,0,1,.61.55l-8.4,9.33A.41.41,0,0,1,543.45,625.84Z"/><path class="cls-8" d="M535.35,618a.41.41,0,0,1-.28-.7l9.07-8.68.56.59-4.54,4.34h0l-4.54,4.34A.41.41,0,0,1,535.35,618Z"/><path class="cls-8" d="M527.85,609.49a.41.41,0,0,1-.26-.72l9.7-8a.41.41,0,1,1,.52.63l-9.7,8A.4.4,0,0,1,527.85,609.49Z"/><path class="cls-8" d="M521,600.49a.41.41,0,0,1-.24-.74l5.13-3.62h0l5.13-3.62a.41.41,0,0,1,.57.1.41.41,0,0,1-.1.57l-10.26,7.24A.41.41,0,0,1,521,600.49Z"/><path class="cls-8" d="M504.7,570.65a.41.41,0,0,1-.38-.25.4.4,0,0,1,0-.15.41.41,0,0,1,.25-.38l5.81-2.38h0l5.81-2.38a.41.41,0,0,1,.53.22.4.4,0,0,1,0,.15.41.41,0,0,1-.25.38l-11.62,4.76A.4.4,0,0,1,504.7,570.65Z"/><path class="cls-8" d="M500.82,560a.41.41,0,0,1-.39-.28.4.4,0,0,1,0-.13.41.41,0,0,1,.28-.39l6-1.94h0l6-1.94a.41.41,0,1,1,.25.77L500.95,560Z"/><path class="cls-8" d="M497.74,549.16a.41.41,0,0,1-.4-.31.4.4,0,0,1,0-.1.41.41,0,0,1,.31-.4l6.1-1.49h0l6.1-1.49a.41.41,0,1,1,.19.79l-12.2,3Z"/><path class="cls-8" d="M495.48,538.08a.41.41,0,0,1-.4-.34.39.39,0,0,1,0-.07.41.41,0,0,1,.34-.4l12.39-2.06a.41.41,0,0,1,.47.34.4.4,0,0,1,0,.07.41.41,0,0,1-.34.4l-6.19,1h0l-6.19,1Z"/><path class="cls-8" d="M494.06,526.86a.41.41,0,0,1-.41-.37s0,0,0,0a.41.41,0,0,1,.37-.4l12.51-1.14a.41.41,0,0,1,.44.37.37.37,0,0,1,0,0,.41.41,0,0,1-.37.4l-12.51,1.14Z"/><path class="cls-8" d="M507.29,494.55h-.06l-12.45-1.68a.41.41,0,0,1-.35-.4.43.43,0,0,1,0-.06.4.4,0,0,1,.46-.35l12.45,1.68a.41.41,0,0,1,.35.4.42.42,0,0,1,0,.06A.41.41,0,0,1,507.29,494.55Z"/><path class="cls-8" d="M509,484.33l-6.14-1.3h0l-6.14-1.3a.41.41,0,0,1,.17-.8l12.28,2.61Z"/><path class="cls-8" d="M511.51,474.27l-6-1.76h0l-6-1.76a.41.41,0,0,1-.29-.39.4.4,0,0,1,0-.11.41.41,0,0,1,.51-.28l12.06,3.51Z"/><path class="cls-8" d="M514.91,464.45l-.14,0L503,460a.41.41,0,1,1,.29-.76l5.88,2.2h0l5.88,2.2a.41.41,0,0,1-.14.79Z"/><path class="cls-8" d="M518.92,454.89a.41.41,0,0,1-.17,0l-5.7-2.63h0l-5.7-2.63.34-.74,11.4,5.27a.41.41,0,0,1-.17.78Z"/><path class="cls-8" d="M535.13,428.25a.41.41,0,0,1-.25-.09l-9.94-7.68a.41.41,0,1,1,.5-.64l9.94,7.68a.41.41,0,0,1-.25.73Z"/><path class="cls-8" d="M541.79,420.3a.41.41,0,0,1-.27-.1l-9.34-8.4a.41.41,0,0,1,.55-.61l4.67,4.2h0l4.67,4.2a.41.41,0,0,1-.27.71Z"/><path class="cls-8" d="M549,412.87a.41.41,0,0,1-.29-.13l-4.34-4.54h0L540,403.67a.41.41,0,0,1,.59-.56l8.69,9.07a.41.41,0,0,1-.29.69Z"/><path class="cls-8" d="M556.78,406a.41.41,0,0,1-.31-.15l-8-9.69a.41.41,0,1,1,.63-.52l8,9.69a.41.41,0,0,1-.31.67Z"/><path class="cls-8" d="M565,399.71a.41.41,0,0,1-.33-.17l-3.62-5.13h0l-3.62-5.13a.41.41,0,0,1,.67-.47l7.24,10.26a.41.41,0,0,1-.33.64Z"/><path class="cls-8" d="M592.39,384.75a.41.41,0,0,1-.38-.25l-4.77-11.62a.41.41,0,1,1,.75-.31l2.38,5.81h0l2.38,5.81a.41.41,0,0,1-.38.56Z"/><path class="cls-8" d="M602.12,381.19a.41.41,0,0,1-.39-.28L597.85,369a.4.4,0,0,1,0-.13.41.41,0,0,1,.79-.13l1.94,6h0l1.94,6a.4.4,0,0,1,0,.13.41.41,0,0,1-.28.39Z"/><rect class="cls-8" x="610.2" y="365.57" width="0.81" height="12.56" transform="translate(-70.95 155.99) rotate(-13.77)"/><path class="cls-8" d="M622.26,376.28a.41.41,0,0,1-.4-.34l-1-6.19h0l-1-6.19a.39.39,0,0,1,0-.07.41.41,0,0,1,.81-.07l2.07,12.39a.4.4,0,0,1,0,.07.41.41,0,0,1-.34.4Z"/><path class="cls-8" d="M632.54,375a.41.41,0,0,1-.41-.37l-.57-6.25h0L631,362.1s0,0,0,0a.41.41,0,0,1,.81,0l.57,6.25h0l.57,6.25a.37.37,0,0,1,0,0,.41.41,0,0,1-.37.4Z"/><path class="cls-8" d="M712.75,397.63a1.44,1.44,0,0,1-1.24-2.16l6.28-10.81h0l6.28-10.81a1.44,1.44,0,1,1,2.49,1.44L714,396.91A1.44,1.44,0,0,1,712.75,397.63Z"/><rect class="cls-8" x="760.57" y="438.36" width="25.01" height="2.87" transform="translate(-116.35 441.4) rotate(-29.74)"/><path class="cls-8" d="M805,515.53h0l-25-.18a1.44,1.44,0,0,1-1.43-1.44h0a1.44,1.44,0,0,1,1.44-1.43h0l25,.18a1.44,1.44,0,0,1,1.43,1.44h0A1.44,1.44,0,0,1,805,515.53Z"/><path class="cls-8" d="M782.79,595.71a1.43,1.43,0,0,1-.73-.2L760.53,582.8a1.44,1.44,0,0,1,1.46-2.48L783.53,593a1.44,1.44,0,0,1-.73,2.68Z"/><path class="cls-8" d="M722.09,653.18l-12.25-21.8a1.44,1.44,0,0,1,2.51-1.41l12.25,21.8Z"/><path class="cls-8" d="M642.71,674.41h0a1.44,1.44,0,0,1-1.42-1.44v0l.35-25a1.44,1.44,0,0,1,1.44-1.42h0A1.44,1.44,0,0,1,644.5,648v0l-.35,25A1.44,1.44,0,0,1,642.71,674.41Z"/><path class="cls-8" d="M562.68,651.65a1.44,1.44,0,0,1-1.23-2.18L574.31,628l2.47,1.48L563.92,651A1.44,1.44,0,0,1,562.68,651.65Z"/><path class="cls-8" d="M504.9,591.79a1.44,1.44,0,0,1-.7-2.7L526.09,577a1.44,1.44,0,1,1,1.39,2.52L505.6,591.61A1.43,1.43,0,0,1,504.9,591.79Z"/><path class="cls-8" d="M510,511.54h0l-25-.53a1.44,1.44,0,0,1-1.41-1.44v0a1.43,1.43,0,0,1,1.47-1.41l25,.53a1.44,1.44,0,0,1,1.41,1.44v0A1.44,1.44,0,0,1,510,511.54Z"/><rect class="cls-8" x="517.54" y="423.71" width="2.87" height="25.01" transform="translate(-123.55 652.52) rotate(-58.65)"/><path class="cls-8" d="M580.5,395.76a1.44,1.44,0,0,1-1.26-.75L567.3,373a1.44,1.44,0,0,1,2.53-1.37l6,11h0l6,11a1.44,1.44,0,0,1-1.26,2.12Z"/><path class="cls-9" d="M719.82,564.84A5.43,5.43,0,0,1,717,564l-70.43-42.6a5.46,5.46,0,0,1,5.65-9.35l70.43,42.6a5.46,5.46,0,0,1-2.83,10.14Z"/><path class="cls-9" d="M542.79,575.79a4,4,0,0,1-2-7.52l98.74-56.42a4,4,0,0,1,4,7l-98.74,56.42A4,4,0,0,1,542.79,575.79Z"/><path class="cls-9" d="M644.78,513.92a2,2,0,0,1-1.39-1.47l-28.7-122.83a2,2,0,0,1,3.92-.92l28.7,122.83a2,2,0,0,1-2.52,2.39Z"/><circle class="cls-9" cx="644.97" cy="512.96" r="8.99"/></svg>